# Blender v2.93.0 OBJ File: 'concept.blend'
# www.blender.org
mtllib CamCone.mtl
o Cylinder_Cylinder.001
v 0.000000 0.000000 -0.005098
v -0.000000 4.000000 -1.758787
v 0.001951 0.000000 -0.004710
v 0.673059 4.000000 -1.624907
v 0.003605 0.000000 -0.003605
v 1.243650 4.000000 -1.243650
v 0.004710 0.000000 -0.001951
v 1.624907 4.000000 -0.673059
v 0.005098 0.000000 0.000000
v 1.758787 4.000000 0.000000
v 0.004710 0.000000 0.001951
v 1.624907 4.000000 0.673059
v 0.003605 0.000000 0.003605
v 1.243650 4.000000 1.243650
v 0.001951 0.000000 0.004710
v 0.673059 4.000000 1.624907
v 0.000000 0.000000 0.005098
v -0.000000 4.000000 1.758787
v -0.001951 0.000000 0.004710
v -0.673059 4.000000 1.624907
v -0.003605 0.000000 0.003605
v -1.243650 4.000000 1.243650
v -0.004710 0.000000 0.001951
v -1.624907 4.000000 0.673059
v -0.005098 0.000000 0.000000
v -1.758787 4.000000 -0.000000
v -0.004710 0.000000 -0.001951
v -1.624907 4.000000 -0.673059
v -0.003605 0.000000 -0.003605
v -1.243651 4.000000 -1.243650
v -0.001951 0.000000 -0.004710
v -0.673059 4.000000 -1.624907
vt -0.000000 0.500000
vt 1.000000 0.500000
vt 1.000000 0.389797
vt -0.000000 0.499480
vt 1.000000 0.296371
vt -0.000000 0.499039
vt 1.000000 0.233946
vt -0.000000 0.498745
vt 1.000000 0.212025
vt -0.000000 0.498641
vt 1.000000 0.233946
vt -0.000000 0.498745
vt 1.000000 0.296371
vt -0.000000 0.499039
vt 1.000000 0.389797
vt -0.000000 0.499480
vt 1.000000 0.500000
vt -0.000000 0.500000
vt 1.000000 0.610203
vt -0.000000 0.500520
vt 1.000000 0.703629
vt -0.000000 0.500961
vt 1.000000 0.766054
vt -0.000000 0.501255
vt 1.000000 0.787975
vt -0.000000 0.501359
vt 1.000000 0.766054
vt -0.000000 0.501255
vt 1.000000 0.703629
vt -0.000000 0.500961
vt 1.000000 0.610203
vt -0.000000 0.500520
vn 0.1792 -0.3950 -0.9010
vn 0.5104 -0.3950 -0.7638
vn 0.7638 -0.3950 -0.5104
vn 0.9010 -0.3950 -0.1792
vn 0.9010 -0.3950 0.1792
vn 0.7638 -0.3950 0.5104
vn 0.5104 -0.3950 0.7638
vn 0.1792 -0.3950 0.9010
vn -0.1792 -0.3950 0.9010
vn -0.5104 -0.3950 0.7638
vn -0.7638 -0.3950 0.5104
vn -0.9010 -0.3950 0.1792
vn -0.9010 -0.3950 -0.1792
vn -0.7638 -0.3950 -0.5104
vn -0.5104 -0.3950 -0.7638
vn -0.1792 -0.3950 -0.9010
usemtl None
s off
f 1/1/1 2/2/1 4/3/1 3/4/1
f 3/4/2 4/3/2 6/5/2 5/6/2
f 5/6/3 6/5/3 8/7/3 7/8/3
f 7/8/4 8/7/4 10/9/4 9/10/4
f 9/10/5 10/9/5 12/11/5 11/12/5
f 11/12/6 12/11/6 14/13/6 13/14/6
f 13/14/7 14/13/7 16/15/7 15/16/7
f 15/16/8 16/15/8 18/17/8 17/18/8
f 17/18/9 18/17/9 20/19/9 19/20/9
f 19/20/10 20/19/10 22/21/10 21/22/10
f 21/22/11 22/21/11 24/23/11 23/24/11
f 23/24/12 24/23/12 26/25/12 25/26/12
f 25/26/13 26/25/13 28/27/13 27/28/13
f 27/28/14 28/27/14 30/29/14 29/30/14
f 29/30/15 30/29/15 32/31/15 31/32/15
f 31/32/16 32/31/16 2/2/16 1/1/16
