# Blender v2.93.4 OBJ File: 'Arch.blend'
# www.blender.org
mtllib VentCorner.mtl
o VentCorner_Cube.002
v -1.200000 0.000000 0.000000
v -1.200000 1.200000 0.000000
v -1.200000 0.000000 -1.200000
v -1.200000 1.200000 -1.200000
v 0.000000 0.000000 0.000000
v 0.000000 1.200000 0.000000
v -0.000000 0.000000 -2.400000
v -0.000000 1.200000 -2.400000
v 1.200000 0.000000 -2.400000
v 1.200000 1.200000 -2.400000
v -0.000000 0.000000 -1.200000
v -0.000000 1.200000 -1.200000
v 1.200000 0.000000 -1.200000
v 1.200000 1.200000 -1.200000
v -1.200000 1.200000 -2.400000
v -1.200000 0.000000 -2.400000
vt 1.000000 0.000000
vt 0.000000 0.000000
vt 0.000000 1.000000
vt 1.000000 1.000000
vt 1.000000 1.000000
vt 1.000000 0.000000
vt 0.000000 0.000000
vt 0.000000 1.000000
vt 1.000000 1.000000
vt 0.000000 0.000000
vt 0.000000 1.000000
vt 0.000000 0.000000
vt 0.000000 1.000000
vt 1.000000 0.000000
vt 1.000000 0.000000
vt 0.000000 0.000000
vt 0.000000 1.000000
vt 1.000000 1.000000
vt 1.000000 1.000000
vt 1.000000 0.000000
vt 0.000000 1.000000
vt 1.000000 1.000000
vt 0.000000 0.000000
vt 0.000000 1.000000
vt 0.000000 0.000000
vt 1.000000 0.000000
vt 0.000000 1.000000
vt 0.000000 0.000000
vt 1.000000 0.000000
vt 0.000000 0.000000
vt 1.000000 0.000000
vt 1.000000 1.000000
vt 1.000000 0.000000
vt 1.000000 1.000000
vt 0.000000 0.000000
vt 0.000000 1.000000
vt 1.000000 1.000000
vn 1.0000 0.0000 0.0000
vn -1.0000 0.0000 0.0000
vn -0.0000 1.0000 0.0000
vn 0.0000 -1.0000 0.0000
vn 0.0000 0.0000 1.0000
vn 0.0000 0.0000 -1.0000
usemtl Vent
s off
f 1/1/1 3/2/1 4/3/1 2/4/1
f 11/5/2 5/6/2 6/7/2 12/8/2
f 3/9/3 1/1/3 5/10/3 11/11/3
f 12/12/4 6/13/4 2/4/4 4/14/4
f 7/15/5 9/16/5 10/17/5 8/18/5
f 13/19/6 11/20/6 12/12/6 14/21/6
f 9/22/3 7/15/3 11/23/3 13/24/3
f 14/25/4 12/8/4 8/18/4 10/26/4
f 7/27/3 16/28/3 3/29/3 11/5/3
f 15/30/4 8/31/4 12/32/4 4/3/4
f 15/33/5 16/34/5 7/27/5 8/35/5
f 3/36/1 16/28/1 15/33/1 4/37/1
