# Blender v2.93.4 OBJ File: ''
# www.blender.org
mtllib chairCollision.mtl
o Plane.001
v -0.315171 0.000000 0.315171
v 0.315171 0.000000 0.315171
v -0.315171 0.000000 -0.315171
v 0.315171 0.000000 -0.315171
v -0.059249 0.201392 0.059249
v 0.059249 0.201392 0.059249
v -0.059249 0.201392 -0.059249
v 0.059249 0.201392 -0.059249
v 0.207135 0.100696 -0.207135
v 0.207135 0.100696 0.207135
v -0.207135 0.100696 0.207135
v -0.207135 0.100696 -0.207135
v 0.143774 0.151044 -0.143774
v -0.143774 0.151044 0.143774
v 0.143774 0.151044 0.143774
v -0.143774 0.151044 -0.143774
v 0.265730 0.050348 0.265730
v -0.265730 0.050348 -0.265730
v 0.265730 0.050348 -0.265730
v -0.265730 0.050348 0.265730
vt 0.000000 0.000000
vt 0.000000 1.000000
vt 1.000000 1.000000
vt 1.000000 0.000000
vt 0.000000 0.000000
vt 1.000000 0.000000
vt 1.000000 1.000000
vt 0.000000 1.000000
vt 1.000000 0.000000
vt 1.000000 1.000000
vt 0.000000 1.000000
vt 0.000000 0.000000
vt 0.000000 0.000000
vt 1.000000 0.000000
vt 1.000000 0.000000
vt 0.000000 0.000000
vt 1.000000 1.000000
vt 0.000000 1.000000
vt 0.000000 1.000000
vt 1.000000 1.000000
vn 0.0000 -1.0000 0.0000
vn 0.0000 1.0000 0.0000
vn 0.5118 0.8591 0.0000
vn -0.5118 0.8591 0.0000
vn 0.0000 0.8591 -0.5118
vn 0.0000 0.8591 0.5118
vn 0.0000 0.7585 0.6517
vn 0.0000 0.7585 -0.6517
vn -0.6517 0.7585 0.0000
vn 0.6517 0.7585 0.0000
vn 0.0000 0.7829 0.6221
vn 0.0000 0.7829 -0.6221
vn -0.6221 0.7829 0.0000
vn 0.6221 0.7829 0.0000
vn 0.7135 0.7006 0.0000
vn -0.7135 0.7006 0.0000
vn 0.0000 0.7006 -0.7135
vn 0.0000 0.7006 0.7135
usemtl None
s off
f 1/1/1 3/2/1 4/3/1 2/4/1
f 5/5/2 6/6/2 8/7/2 7/8/2
f 15/9/3 13/10/3 8/7/3 6/6/3
f 16/11/4 14/12/4 5/5/4 7/8/4
f 13/10/5 16/11/5 7/8/5 8/7/5
f 14/12/6 15/9/6 6/6/6 5/5/6
f 20/13/7 17/14/7 10/15/7 11/16/7
f 19/17/8 18/18/8 12/19/8 9/20/8
f 18/18/9 20/13/9 11/16/9 12/19/9
f 17/14/10 19/17/10 9/20/10 10/15/10
f 11/16/11 10/15/11 15/9/11 14/12/11
f 9/20/12 12/19/12 16/11/12 13/10/12
f 12/19/13 11/16/13 14/12/13 16/11/13
f 10/15/14 9/20/14 13/10/14 15/9/14
f 2/4/15 4/3/15 19/17/15 17/14/15
f 3/2/16 1/1/16 20/13/16 18/18/16
f 4/3/17 3/2/17 18/18/17 19/17/17
f 1/1/18 2/4/18 17/14/18 20/13/18
