# Blender v2.93.4 OBJ File: ''
# www.blender.org
mtllib CrappyCeilingLight.mtl
o Cube.001_Cube.002
v -0.006021 -0.193800 0.009794
v -0.006021 0.173708 0.009794
v -0.004789 -0.193800 -0.009792
v -0.004789 0.173708 -0.009792
v 0.012335 -0.193800 0.002154
v 0.012335 0.173708 0.002154
v -0.000000 -0.373648 -0.261715
v -0.185060 -0.373648 -0.185060
v -0.261715 -0.373648 0.000000
v -0.185060 -0.373648 0.185060
v 0.000000 -0.373648 0.261715
v 0.185060 -0.373648 0.185060
v 0.261715 -0.373648 0.000000
v 0.185060 -0.373648 -0.185060
v -0.000000 -0.206606 -0.053985
v -0.038174 -0.206606 -0.038173
v -0.053985 -0.206606 0.000000
v -0.038174 -0.206606 0.038174
v 0.000000 -0.206606 0.053985
v 0.038174 -0.206606 0.038174
v 0.053985 -0.206606 0.000000
v 0.038174 -0.206606 -0.038173
v -0.000000 -0.194338 -0.016713
v -0.011818 -0.194338 -0.011818
v -0.016713 -0.194338 0.000000
v -0.011818 -0.194338 0.011818
v 0.000000 -0.194338 0.016713
v 0.011818 -0.194338 0.011818
v 0.016713 -0.194338 0.000000
v 0.011818 -0.194338 -0.011818
vt 0.375000 0.000000
vt 0.625000 0.000000
vt 0.625000 0.250000
vt 0.375000 0.250000
vt 0.625000 0.500000
vt 0.375000 0.500000
vt 0.000000 0.000000
vt 0.000000 0.000000
vt 0.000000 0.000000
vt 0.000000 0.000000
vt 0.000000 0.000000
vt 0.000000 0.000000
vt 0.000000 0.000000
vt 0.000000 0.000000
vt 0.000000 0.000000
vt 0.000000 0.000000
vt 0.000000 0.000000
vt 0.000000 0.000000
vt 0.000000 0.000000
vt 0.000000 0.000000
vt 0.000000 0.000000
vt 0.000000 0.000000
vt 0.000000 0.000000
vt 0.000000 0.000000
vt 0.000000 0.000000
vt 0.000000 0.000000
vt 0.000000 0.000000
vt 0.000000 0.000000
vt 0.000000 0.000000
vt 0.000000 0.000000
vn -0.9980 0.0000 -0.0628
vn 0.5721 0.0000 -0.8202
vn 0.3843 0.0000 0.9232
vn -0.6066 -0.7543 0.2512
vn -0.2512 -0.7543 -0.6066
vn 0.6066 -0.7543 -0.2512
vn 0.2512 -0.7543 0.6066
vn -0.2512 -0.7543 0.6066
vn -0.6066 -0.7543 -0.2512
vn 0.2512 -0.7543 -0.6066
vn 0.6066 -0.7543 0.2512
vn 0.3101 -0.9420 -0.1284
vn 0.1284 -0.9420 0.3101
vn -0.1284 -0.9420 0.3101
vn -0.3101 -0.9420 -0.1284
vn 0.1284 -0.9420 -0.3101
vn 0.3101 -0.9420 0.1284
vn -0.3101 -0.9420 0.1284
vn -0.1284 -0.9420 -0.3101
vn 0.0000 -1.0000 0.0000
usemtl None
s off
f 1/1/1 2/2/1 4/3/1 3/4/1
f 3/4/2 4/3/2 6/5/2 5/6/2
f 1/1/3 5/6/3 6/5/3 2/2/3
f 14/7/4 13/8/4 21/9/4 22/10/4
f 12/11/5 11/12/5 19/13/5 20/14/5
f 10/15/6 9/16/6 17/17/6 18/18/6
f 8/19/7 7/20/7 15/21/7 16/22/7
f 7/20/8 14/7/8 22/10/8 15/21/8
f 13/8/9 12/11/9 20/14/9 21/9/9
f 11/12/10 10/15/10 18/18/10 19/13/10
f 9/16/11 8/19/11 16/22/11 17/17/11
f 18/18/12 17/17/12 25/23/12 26/24/12
f 16/22/13 15/21/13 23/25/13 24/26/13
f 15/21/14 22/10/14 30/27/14 23/25/14
f 21/9/15 20/14/15 28/28/15 29/29/15
f 19/13/16 18/18/16 26/24/16 27/30/16
f 17/17/17 16/22/17 24/26/17 25/23/17
f 22/10/18 21/9/18 29/29/18 30/27/18
f 20/14/19 19/13/19 27/30/19 28/28/19
f 24/26/20 23/25/20 30/27/20 29/29/20 28/28/20 27/30/20 26/24/20 25/23/20
