# Blender v2.93.4 OBJ File: 'floorplan.blend'
# www.blender.org
mtllib elevatorBox.mtl
o Cube.002_Cube.001
v -1.100000 0.000000 1.200000
v -1.100000 2.800000 1.200000
v -1.100000 0.000000 -1.000000
v -1.100000 2.800000 -1.000000
v 1.100000 0.000000 1.200000
v 1.100000 2.800000 1.200000
v 1.100000 0.000000 -1.000000
v 1.100000 2.800000 -1.000000
v 0.600000 0.000000 -1.000000
v -0.600000 0.000000 -1.000000
v 0.600000 2.200000 -1.000000
v -0.600000 2.200000 -1.000000
v 0.600000 0.000000 -1.100000
v -0.600000 0.000000 -1.100000
v 0.600000 2.200000 -1.100000
v -0.600000 2.200000 -1.100000
vt 0.785714 1.000000
vt 0.000000 1.000000
vt 0.000000 0.000000
vt 0.785714 0.000000
vt 0.000000 0.178572
vt 0.000000 0.000000
vt 1.000000 0.000000
vt 0.785715 0.178572
vt 0.785714 1.000000
vt 0.000000 1.000000
vt 0.000000 0.000000
vt 0.785714 0.000000
vt 0.821429 1.000000
vt 0.000000 1.000000
vt 0.000000 0.000000
vt 0.821429 0.000000
vt 0.785714 0.607143
vt 1.000000 0.785714
vt 0.000000 0.785714
vt 0.000000 0.607143
vt 1.000000 0.338235
vt 0.676471 0.338235
vt 0.676471 0.000000
vt 1.000000 0.000000
vt 0.000000 0.000000
vt 0.956522 0.000000
vt 0.956522 1.000000
vt 0.000000 1.000000
vt 0.000000 0.782609
vt 0.000000 0.260870
vt 0.045455 1.000000
vt 0.045455 0.000000
vt 0.090909 0.000000
vt 0.090909 1.000000
vt 0.136364 0.545455
vt 0.136364 0.000000
vt 0.181818 0.000000
vt 0.181818 0.545455
vt 0.045455 0.000000
vt 0.045455 1.000000
vt 0.000000 1.000000
vt 0.000000 0.000000
vt 0.090909 0.545455
vt 0.090909 0.000000
vt 0.136364 0.000000
vt 0.136364 0.545455
vn 1.0000 0.0000 0.0000
vn 0.0000 0.0000 1.0000
vn -1.0000 0.0000 0.0000
vn 0.0000 0.0000 -1.0000
vn 0.0000 -1.0000 0.0000
vn 0.0000 1.0000 0.0000
usemtl None
s off
f 1/1/1 3/2/1 4/3/1 2/4/1
f 9/5/2 7/6/2 8/7/2 11/8/2
f 7/9/3 5/10/3 6/11/3 8/12/3
f 5/13/4 1/14/4 2/15/4 6/16/4
f 12/17/2 4/18/2 3/19/2 10/20/2
f 8/21/5 6/22/5 2/23/5 4/24/5
f 8/7/2 4/18/2 12/17/2 11/8/2
f 3/25/6 1/26/6 5/27/6 7/28/6 9/29/6 10/30/6
f 12/31/1 10/32/1 14/33/1 16/34/1
f 11/35/5 12/36/5 16/37/5 15/38/5
f 9/39/3 11/40/3 15/41/3 13/42/3
f 10/43/6 9/44/6 13/45/6 14/46/6
