# Blender v2.93.4 OBJ File: 'floorplan.blend'
# www.blender.org
mtllib elevatorDoors.mtl
o Cube.001_Cube
v 0.000000 0.000000 0.100000
v 0.000000 2.200000 0.100000
v 0.000000 0.000000 -0.100000
v 0.000000 2.200000 -0.100000
v -0.582691 0.000000 0.100000
v -0.600000 0.000000 0.082691
v -0.600000 2.200000 0.082691
v -0.582691 2.200000 0.100000
v -0.600000 0.000000 -0.082691
v -0.582691 0.000000 -0.100000
v -0.582691 2.200000 -0.100000
v -0.600000 2.200000 -0.082691
vt 0.545455 0.000000
vt 0.545455 1.000000
vt 0.280595 1.000000
vt 0.280595 0.000000
vt 0.636364 0.000000
vt 0.636364 1.000000
vt 0.711538 0.272727
vt 0.711538 0.007868
vt 0.719405 0.000000
vt 0.794579 0.000000
vt 0.802447 0.007868
vt 0.802447 0.272727
vt 0.711538 0.000000
vt 0.711537 1.000000
vt 0.636364 1.000000
vt 0.636364 0.000000
vt 0.264860 0.000000
vt 0.264860 1.000000
vt 0.000000 1.000000
vt 0.000000 0.000000
vt 0.272727 1.000000
vt 0.272727 0.000000
vt 0.272727 0.000000
vt 0.272727 1.000000
vt 0.794579 0.272727
vt 0.802447 0.280595
vt 0.802447 0.545455
vt 0.711538 0.545455
vt 0.711538 0.280595
vt 0.719405 0.272727
vn 0.0000 0.0000 1.0000
vn 1.0000 0.0000 0.0000
vn 0.0000 1.0000 0.0000
vn -1.0000 0.0000 0.0000
vn 0.0000 0.0000 -1.0000
vn -0.7071 0.0000 0.7071
vn -0.7071 0.0000 -0.7071
vn 0.0000 -1.0000 0.0000
usemtl None
s off
f 1/1/1 2/2/1 8/3/1 5/4/1
f 3/5/2 4/6/2 2/2/2 1/1/2
f 4/7/3 11/8/3 12/9/3 7/10/3 8/11/3 2/12/3
f 6/13/4 7/14/4 12/15/4 9/16/4
f 10/17/5 11/18/5 4/19/5 3/20/5
f 5/4/6 8/3/6 7/21/6 6/22/6
f 11/18/7 10/17/7 9/23/7 12/24/7
f 9/25/8 10/26/8 3/27/8 1/28/8 5/29/8 6/30/8
