# Blender v2.93.4 OBJ File: ''
# www.blender.org
mtllib frontDesk.mtl
o Cube.002_Cube.003
v -3.062370 0.000000 0.500000
v -3.062370 1.400000 0.500000
v -2.414939 0.000000 -0.500000
v -2.414939 1.400000 -0.500000
v 3.062370 0.000000 0.500000
v 3.062370 1.400000 0.500000
v 2.414939 0.000000 -0.500000
v 2.414939 1.400000 -0.500000
v 2.909252 1.400000 0.540000
v 2.909252 0.000000 0.540000
v 2.294192 1.400000 -0.460000
v -1.207469 1.400000 -0.100000
v 0.000000 1.400000 0.000000
v 1.207469 1.400000 -0.100000
v -1.531185 0.000000 0.900000
v -0.000000 0.000000 1.000000
v 1.531185 0.000000 0.900000
v 1.531185 1.400000 0.900000
v -0.000000 1.400000 1.000000
v -1.531185 1.400000 0.900000
v -2.909252 1.400000 0.540000
v -2.294192 1.400000 -0.460000
v -2.909252 0.000000 0.540000
v -2.294192 0.000000 -0.460000
v 2.294192 0.000000 -0.460000
v -3.062370 1.260000 0.500000
v -2.414939 1.260000 -0.500000
v 2.414939 1.260000 -0.500000
v 3.062370 1.260000 0.500000
v -2.909252 1.260000 0.540000
v 1.531185 1.260000 0.900000
v -0.000000 1.260000 1.000000
v -1.531185 1.260000 0.900000
v 2.909252 1.260000 0.540000
v -2.294192 1.260000 -0.460000
v 2.294192 1.260000 -0.460000
v -1.207469 1.260000 -0.100000
v 0.000000 1.260000 0.000000
v 1.207469 1.260000 -0.100000
v -2.965255 0.000000 0.350000
v -2.965255 1.400000 0.350000
v 2.965255 0.000000 0.350000
v 2.965256 1.400000 0.350000
v 2.816993 1.400000 0.390000
v 1.482628 1.400000 0.750000
v 0.000000 1.400000 0.850000
v -1.482628 1.400000 0.750000
v -2.816993 1.400000 0.390000
v 2.965256 1.260000 0.350000
v -2.965255 1.260000 0.350000
v 2.816993 0.000000 0.390000
v -2.816993 0.000000 0.390000
v 1.482628 0.000000 0.750000
v 0.000000 0.000000 0.850000
v -1.482628 0.000000 0.750000
v 2.816993 1.260000 0.390000
v -2.816993 1.260000 0.390000
v 1.482628 1.260000 0.750000
v 0.000000 1.260000 0.850000
v -1.482628 1.260000 0.750000
v -2.414939 0.630000 -0.500000
v 2.414939 0.630000 -0.500000
v 3.062370 0.630000 0.500000
v -2.909252 0.630000 0.540000
v 1.531185 0.630000 0.900000
v -0.000000 0.630000 1.000000
v -1.531185 0.630000 0.900000
v 2.909252 0.630000 0.540000
v -2.294192 0.630000 -0.460000
v 2.294192 0.630000 -0.460000
v -3.062370 0.630000 0.500000
v -2.965255 0.630000 0.350000
v 2.965256 0.630000 0.350000
v -1.482628 0.630000 0.750000
v -2.816993 0.630000 0.390000
v 0.000000 0.630000 0.850000
v 1.482628 0.630000 0.750000
v 2.816993 0.630000 0.390000
vt 0.945802 0.979355
vt 0.945802 1.000000
vt 0.796483 1.000000
vt 0.796483 0.979355
vt 0.036865 0.670213
vt 0.089952 0.866981
vt 0.067832 0.880585
vt 0.014746 0.677373
vt 0.647164 0.979355
vt 0.647164 1.000000
vt 0.620814 1.000000
vt 0.620814 0.979355
vt 0.241837 0.022579
vt 0.221192 0.022579
vt 0.221192 0.000000
vt 0.241837 0.000000
vt 0.095850 0.888844
vt 0.073731 0.903164
vt 0.089952 0.036184
vt 0.036865 0.232951
vt 0.014746 0.225791
vt 0.067832 0.022579
vt 0.022119 0.451582
vt 0.000000 0.451582
vt 0.806615 0.255428
vt 0.827260 0.255428
vt 0.827260 0.270056
vt 0.806615 0.270056
vt 0.641458 0.014628
vt 0.620814 0.014628
vt 0.620814 0.000000
vt 0.641458 0.000000
vt 0.241837 0.880585
vt 0.221192 0.880585
vt 0.221192 0.677373
vt 0.241837 0.677373
vt 0.221192 0.451582
vt 0.241837 0.451582
vt 0.221192 0.225791
vt 0.241837 0.225791
vt 0.241837 0.903164
vt 0.221192 0.903164
vt 0.095850 0.014321
vt 0.073731 0.000000
vt 0.334738 0.225791
vt 0.334738 0.022579
vt 0.334738 0.903164
vt 0.334738 0.880585
vt 0.334738 0.451582
vt 0.334738 0.677373
vt 0.734359 0.014628
vt 0.734359 0.000000
vt 0.713714 0.255428
vt 0.713714 0.270056
vt 0.334738 0.000000
vt 0.647164 0.886454
vt 0.620814 0.886454
vt 0.945802 0.886454
vt 0.796483 0.886454
vt 0.620814 0.255428
vt 0.620814 0.146281
vt 0.641458 0.146281
vt 0.641458 0.255428
vt 0.827260 0.401709
vt 0.827260 0.510856
vt 0.806615 0.510856
vt 0.806615 0.401709
vt 0.972152 0.886454
vt 0.972152 0.979355
vt 0.796483 0.886454
vt 0.796483 0.979355
vt 0.221192 0.095471
vt 0.215294 0.113277
vt 0.147462 0.451582
vt 0.162208 0.629638
vt 0.162208 0.273527
vt 0.215294 0.789888
vt 0.221192 0.807693
vt 0.796483 1.000000
vt 0.972152 1.000000
vt 0.899516 0.510856
vt 0.992417 0.510856
vt 0.992417 0.662355
vt 0.899516 0.662355
vt 0.992417 0.793553
vt 0.899516 0.793553
vt 0.713714 0.510856
vt 0.713714 0.662356
vt 0.620814 0.662356
vt 0.620814 0.510856
vt 0.713714 0.793554
vt 0.620814 0.793554
vt 0.904353 0.278703
vt 0.827260 0.278703
vt 0.827260 0.185802
vt 0.904353 0.185802
vt 0.904353 0.092901
vt 0.904353 0.185802
vt 0.827260 0.185802
vt 0.827260 0.092901
vt 0.567727 0.237343
vt 0.442385 0.196768
vt 0.495471 0.000000
vt 0.620814 0.077093
vt 0.552981 0.415398
vt 0.427639 0.415398
vt 0.567727 0.593454
vt 0.620814 0.753704
vt 0.495471 0.830797
vt 0.442385 0.634029
vt 0.904353 0.000000
vt 0.827260 0.000000
vt 0.904353 0.371603
vt 0.827260 0.371603
vt 0.806615 0.793554
vt 0.806615 0.662356
vt 0.806615 0.510856
vt 0.806615 0.662355
vt 0.806615 0.510856
vt 0.796483 0.793554
vt 0.647164 0.793554
vt 0.972152 0.793554
vt 0.945802 0.793554
vt 0.796483 0.793554
vt 0.620814 0.793554
vt 0.427639 0.022579
vt 0.427639 0.000000
vt 0.620814 0.255428
vt 0.620814 0.270056
vt 0.827260 0.014628
vt 0.827260 0.000000
vt 0.427639 0.880585
vt 0.427639 0.677373
vt 0.427639 0.451582
vt 0.427639 0.225791
vt 0.427639 0.903164
vn -0.8394 0.0000 -0.5435
vn 0.0000 1.0000 0.0000
vn 0.8394 0.0000 -0.5435
vn -0.2528 0.0000 0.9675
vn 0.3145 0.0000 -0.9493
vn -0.3145 0.0000 -0.9493
vn 0.2528 0.0000 0.9675
vn 0.0652 0.0000 0.9979
vn -0.0652 0.0000 0.9979
vn -0.0825 0.0000 -0.9966
vn 0.0825 0.0000 -0.9966
vn 0.2605 0.0000 -0.9655
vn 0.0673 0.0000 -0.9977
vn -0.2605 0.0000 -0.9655
vn -0.0673 0.0000 -0.9977
vn -0.8518 0.0000 0.5239
vn 0.8518 0.0000 0.5239
vn -0.0000 -1.0000 0.0000
usemtl None
s off
f 50/1/1 41/2/1 4/3/1 27/4/1
f 47/5/2 48/6/2 21/7/2 20/8/2
f 49/9/3 43/10/3 6/11/3 29/12/3
f 30/13/4 21/14/4 2/15/4 26/16/4
f 48/6/2 41/17/2 2/18/2 21/7/2
f 44/19/2 45/20/2 18/21/2 9/22/2
f 45/20/2 46/23/2 19/24/2 18/21/2
f 46/23/2 47/5/2 20/8/2 19/24/2
f 27/25/5 4/26/5 22/27/5 35/28/5
f 36/29/6 11/30/6 8/31/6 28/32/6
f 34/33/7 9/34/7 18/35/7 31/36/7
f 31/36/8 18/35/8 19/37/8 32/38/8
f 32/38/9 19/37/9 20/39/9 33/40/9
f 29/41/7 6/42/7 9/34/7 34/33/7
f 43/43/2 44/19/2 9/22/2 6/44/2
f 33/40/4 20/39/4 21/14/4 30/13/4
f 67/45/4 33/40/4 30/13/4 64/46/4
f 63/47/7 29/41/7 34/33/7 68/48/7
f 66/49/9 32/38/9 33/40/9 67/45/9
f 65/50/8 31/36/8 32/38/8 66/49/8
f 68/48/7 34/33/7 31/36/7 65/50/7
f 70/51/6 36/29/6 28/32/6 62/52/6
f 61/53/5 27/25/5 35/28/5 69/54/5
f 64/46/4 30/13/4 26/16/4 71/55/4
f 73/56/3 49/9/3 29/12/3 63/57/3
f 72/58/1 50/1/1 27/4/1 61/59/1
f 13/60/10 14/61/10 39/62/10 38/63/10
f 12/64/11 13/65/11 38/66/11 37/67/11
f 12/64/5 37/67/5 35/28/5 22/27/5
f 14/61/6 11/30/6 36/29/6 39/62/6
f 71/68/1 26/69/1 50/1/1 72/58/1
f 62/70/3 28/71/3 49/9/3 73/56/3
f 8/72/2 11/73/2 44/19/2 43/43/2
f 13/74/2 12/75/2 47/5/2 46/23/2
f 14/76/2 13/74/2 46/23/2 45/20/2
f 11/73/2 14/76/2 45/20/2 44/19/2
f 22/77/2 4/78/2 41/17/2 48/6/2
f 28/71/3 8/79/3 43/10/3 49/9/3
f 12/75/2 22/77/2 48/6/2 47/5/2
f 26/69/1 2/80/1 41/2/1 50/1/1
f 75/81/12 57/82/12 60/83/12 74/84/12
f 74/84/13 60/83/13 59/85/13 76/86/13
f 78/87/14 77/88/14 58/89/14 56/90/14
f 76/91/15 59/92/15 58/89/15 77/88/15
f 70/93/16 78/94/16 56/95/16 36/96/16
f 69/97/17 35/98/17 57/99/17 75/100/17
f 37/101/18 60/102/18 57/103/18 35/104/18
f 38/105/18 59/106/18 60/102/18 37/101/18
f 39/107/18 36/108/18 56/109/18 58/110/18
f 39/107/18 58/110/18 59/106/18 38/105/18
f 24/111/17 69/97/17 75/100/17 52/112/17
f 25/113/16 51/114/16 78/94/16 70/93/16
f 54/115/15 76/91/15 77/88/15 53/116/15
f 51/117/14 53/116/14 77/88/14 78/87/14
f 55/118/13 74/84/13 76/86/13 54/115/13
f 52/119/12 75/81/12 74/84/12 55/118/12
f 7/120/3 62/70/3 73/56/3 42/121/3
f 1/122/1 71/68/1 72/58/1 40/123/1
f 40/123/1 72/58/1 61/59/1 3/124/1
f 42/121/3 73/56/3 63/57/3 5/125/3
f 23/126/4 64/46/4 71/55/4 1/127/4
f 3/128/5 61/53/5 69/54/5 24/129/5
f 25/130/6 70/51/6 62/52/6 7/131/6
f 10/132/7 68/48/7 65/50/7 17/133/7
f 17/133/8 65/50/8 66/49/8 16/134/8
f 16/134/9 66/49/9 67/45/9 15/135/9
f 5/136/7 63/47/7 68/48/7 10/132/7
f 15/135/4 67/45/4 64/46/4 23/126/4
