# Blender v2.93.4 OBJ File: ''
# www.blender.org
mtllib Plant.mtl
o GEO_Office_Plant_Mesh.004
v -0.123464 0.969673 0.426929
v -0.092100 0.969065 0.460076
v -0.078981 0.953515 0.419224
v -0.209490 0.905493 0.297893
v -0.154957 0.874942 0.294556
v -0.095528 0.864099 0.278154
v -0.212943 0.832064 0.185844
v -0.195095 0.814838 0.188861
v -0.172351 0.817320 0.178813
v 0.057764 1.866089 0.101208
v 0.070214 1.881139 0.077923
v 0.039932 1.882280 0.080244
v -0.016387 1.797855 0.149567
v -0.037734 1.813011 0.117126
v -0.062072 1.839337 0.095859
v -0.100025 1.767704 0.157311
v -0.106665 1.769506 0.142160
v -0.116298 1.782479 0.138181
v 0.036557 2.073115 0.184708
v 0.050192 2.096299 0.170557
v 0.020118 2.093894 0.166888
v -0.033230 1.986142 0.192356
v -0.051073 2.009596 0.162873
v -0.075346 2.039379 0.146701
v -0.111452 1.947914 0.172753
v -0.115738 1.954231 0.157966
v -0.126453 1.966877 0.156491
v -0.237652 2.073115 0.062856
v -0.256335 2.096299 0.068950
v -0.231503 2.093894 0.086308
v -0.172443 1.986142 0.088866
v -0.170530 2.009596 0.123275
v -0.156690 2.039379 0.148950
v -0.112580 1.947914 0.142898
v -0.115738 1.954231 0.157966
v -0.106969 1.966877 0.164299
v 0.013008 1.302490 0.048397
v 0.042420 1.286453 0.021308
v 0.002948 1.269307 0.019304
v -0.104538 1.293540 0.154252
v -0.111274 1.243720 0.123197
v -0.130313 1.208524 0.079717
v -0.210979 1.238886 0.195321
v -0.209418 1.216433 0.188260
v -0.220159 1.208604 0.168773
v -0.274718 1.244732 0.449491
v -0.255145 1.273940 0.473121
v -0.250165 1.277015 0.431165
v -0.284904 1.139569 0.335004
v -0.244129 1.175952 0.315265
v -0.222001 1.222276 0.288054
v -0.257621 1.103621 0.219089
v -0.237095 1.113380 0.214464
v -0.235216 1.133081 0.202366
v -0.341677 1.559746 0.143963
v -0.361554 1.584340 0.165991
v -0.323279 1.584185 0.170490
v -0.243308 1.460940 0.118502
v -0.223384 1.486636 0.160178
v -0.196174 1.523552 0.186464
v -0.139904 1.418705 0.136667
v -0.135153 1.424246 0.156465
v -0.123116 1.441007 0.160874
v 0.019811 0.763721 0.311097
v 0.065144 0.763113 0.316330
v 0.048934 0.747563 0.276602
v -0.129032 0.699541 0.267547
v -0.089401 0.668990 0.229938
v -0.054419 0.658147 0.179173
v -0.203701 0.626112 0.183932
v -0.188088 0.608886 0.174771
v -0.177125 0.611368 0.152454
v 0.060818 1.674278 0.214741
v 0.094663 1.667167 0.226328
v 0.081319 1.645246 0.200411
v -0.064652 1.642602 0.179445
v -0.039490 1.600558 0.169355
v -0.012131 1.568224 0.142734
v -0.133410 1.576126 0.131246
v -0.125156 1.558023 0.132973
v -0.114703 1.549633 0.118170
v -0.272807 1.704022 0.028323
v -0.302361 1.710831 0.030298
v -0.283470 1.726960 0.047810
v -0.171071 1.682006 0.069041
v -0.187880 1.705804 0.098855
v -0.198389 1.740773 0.118967
v -0.106761 1.697713 0.128890
v -0.114776 1.702594 0.142632
v -0.116491 1.718645 0.146673
v 0.037187 1.540952 -0.008398
v 0.074699 1.549786 -0.008214
v 0.063345 1.522157 0.016137
v -0.088202 1.512249 0.051110
v -0.053939 1.496616 0.088202
v -0.021187 1.464097 0.113968
v -0.148773 1.462796 0.132912
v -0.136083 1.462665 0.149770
v -0.124903 1.445645 0.155301
v -0.057945 1.434700 0.337188
v -0.023332 1.450847 0.342330
v -0.036572 1.449530 0.306161
v -0.151772 1.349859 0.273268
v -0.117868 1.361060 0.234292
v -0.097014 1.387853 0.193778
v -0.194512 1.304755 0.178691
v -0.178235 1.303725 0.165303
v -0.175008 1.318288 0.150377
v 0.040828 1.053552 0.160415
v 0.081176 1.056203 0.139253
v 0.047273 1.036154 0.116200
v -0.099608 0.976683 0.210801
v -0.084772 0.945340 0.158687
v -0.083096 0.932110 0.097526
v -0.200261 0.891541 0.186747
v -0.190740 0.874547 0.171096
v -0.194380 0.875665 0.146400
v -0.424755 1.107156 -0.006561
v -0.461097 1.134739 -0.005449
v -0.428298 1.142884 0.025222
v -0.306419 1.008890 0.060598
v -0.319457 1.048502 0.107281
v -0.315495 1.100423 0.142023
v -0.218894 0.983287 0.158794
v -0.229010 0.993434 0.179267
v -0.222127 1.015890 0.187797
v -0.188400 0.309660 0.193366
v -0.146882 0.309660 0.169396
v -0.160721 0.309660 0.145425
v -0.202239 0.309660 0.169396
v -0.188400 0.741637 0.193366
v -0.146882 0.741637 0.169396
v -0.160721 0.741637 0.145425
v -0.202239 0.741637 0.169396
v -0.253618 1.090821 0.237349
v -0.212100 1.090821 0.213379
v -0.225939 1.090821 0.189409
v -0.267457 1.090821 0.213379
v -0.125519 1.520759 0.145987
v -0.101407 1.520759 0.132065
v -0.109444 1.520759 0.118144
v -0.133557 1.520759 0.132065
v -0.118241 1.967685 0.175893
v -0.106987 1.967685 0.169396
v -0.110738 1.967685 0.162899
v -0.121992 1.967685 0.169396
v -0.455680 0.803218 0.194642
v -0.482957 0.823841 0.224865
v -0.439421 0.837501 0.223957
v -0.314810 0.727233 0.144126
v -0.294745 0.763530 0.191013
v -0.273156 0.815066 0.219231
v -0.181216 0.716994 0.146686
v -0.174560 0.725017 0.169396
v -0.166379 0.748279 0.173437
v -0.349121 -0.000000 0.338791
v 0.000000 -0.000000 0.338791
v 0.000000 0.000000 0.000000
v -0.349120 0.000000 0.000000
v -0.349121 0.381300 0.338791
v 0.000000 0.381300 0.338791
v 0.000000 0.381300 0.000000
v -0.349120 0.381300 0.000000
v -0.313388 0.381300 0.304116
v -0.035733 0.381300 0.304116
v -0.035733 0.381300 0.034676
v -0.313387 0.381300 0.034676
v -0.313388 0.309659 0.304116
v -0.035733 0.309659 0.304116
v -0.035733 0.309659 0.034676
v -0.313387 0.309659 0.034676
vt 0.009006 0.006319
vt 0.213589 0.006345
vt 0.213561 0.229785
vt 0.008977 0.229760
vt 0.412119 0.006370
vt 0.412091 0.229811
vt 0.616703 0.006396
vt 0.616674 0.229837
vt 0.815233 0.006421
vt 0.815205 0.229862
vt 0.275307 0.229826
vt 0.473837 0.229819
vt 0.473844 0.434402
vt 0.275314 0.434409
vt 0.219756 0.282927
vt 0.223288 0.438084
vt 0.062769 0.433607
vt 0.059236 0.278451
vt 0.271872 0.486680
vt 0.008977 0.486741
vt 0.033320 0.463312
vt 0.247531 0.462975
vt 0.010652 0.229855
vt 0.034993 0.253560
vt 0.273547 0.229793
vt 0.249204 0.253223
vt 0.935909 0.010715
vt 0.935909 0.006319
vt 0.943524 0.006320
vt 0.943523 0.010716
vt 0.844248 0.006319
vt 0.844712 0.259931
vt 0.817099 0.262856
vt 0.815799 0.006403
vt 0.860679 0.006323
vt 0.860795 0.259751
vt 0.888982 0.006448
vt 0.888492 0.262463
vt 0.905318 0.006496
vt 0.904831 0.262544
vt 0.817388 0.467929
vt 0.844825 0.469617
vt 0.861511 0.469558
vt 0.888877 0.467438
vt 0.905202 0.467887
vt 0.835976 0.728593
vt 0.851897 0.730342
vt 0.861256 0.729984
vt 0.877110 0.727896
vt 0.886561 0.728634
vt 0.849461 0.993681
vt 0.857111 0.993138
vt 0.861547 0.992758
vt 0.869213 0.993124
vt 0.873612 0.993628
vt 0.907187 0.006323
vt 0.935280 0.006319
vt 0.935283 0.022539
vt 0.907189 0.022543
vt 0.809201 0.890090
vt 0.771894 0.988745
vt 0.649747 0.541392
vt 0.789416 0.503351
vt 0.689628 0.922739
vt 0.510126 0.579610
vt 0.571714 0.255604
vt 0.627307 0.240398
vt 0.516107 0.270761
vt 0.809201 0.890090
vt 0.771894 0.988745
vt 0.649747 0.541392
vt 0.789416 0.503351
vt 0.689628 0.922739
vt 0.510126 0.579610
vt 0.571714 0.255604
vt 0.627307 0.240398
vt 0.516107 0.270761
vt 0.809201 0.890090
vt 0.771894 0.988745
vt 0.649747 0.541392
vt 0.789416 0.503351
vt 0.689628 0.922739
vt 0.510126 0.579610
vt 0.571714 0.255604
vt 0.627307 0.240398
vt 0.516107 0.270761
vt 0.809201 0.890090
vt 0.771894 0.988745
vt 0.649747 0.541392
vt 0.789416 0.503351
vt 0.689628 0.922739
vt 0.510126 0.579610
vt 0.571714 0.255604
vt 0.627307 0.240398
vt 0.516107 0.270761
vt 0.809201 0.890090
vt 0.771894 0.988745
vt 0.649747 0.541392
vt 0.789416 0.503351
vt 0.689628 0.922739
vt 0.510126 0.579610
vt 0.571714 0.255604
vt 0.627307 0.240398
vt 0.516107 0.270761
vt 0.809201 0.890090
vt 0.771894 0.988745
vt 0.649747 0.541392
vt 0.789416 0.503351
vt 0.689628 0.922739
vt 0.510126 0.579610
vt 0.571714 0.255604
vt 0.627307 0.240398
vt 0.516107 0.270761
vt 0.809201 0.890090
vt 0.771894 0.988745
vt 0.649747 0.541392
vt 0.789416 0.503351
vt 0.689628 0.922739
vt 0.510126 0.579610
vt 0.571714 0.255604
vt 0.627307 0.240398
vt 0.516107 0.270761
vt 0.809201 0.890090
vt 0.771894 0.988745
vt 0.649747 0.541392
vt 0.789416 0.503351
vt 0.689628 0.922739
vt 0.510126 0.579610
vt 0.571714 0.255604
vt 0.627307 0.240398
vt 0.516107 0.270761
vt 0.809201 0.890090
vt 0.771894 0.988745
vt 0.649747 0.541392
vt 0.789416 0.503351
vt 0.689628 0.922739
vt 0.510126 0.579610
vt 0.571714 0.255604
vt 0.627307 0.240398
vt 0.516107 0.270761
vt 0.809201 0.890090
vt 0.771894 0.988745
vt 0.649747 0.541392
vt 0.789416 0.503351
vt 0.689628 0.922739
vt 0.510126 0.579610
vt 0.571714 0.255604
vt 0.627307 0.240398
vt 0.516107 0.270761
vt 0.809201 0.890090
vt 0.771894 0.988745
vt 0.649747 0.541392
vt 0.789416 0.503351
vt 0.689628 0.922739
vt 0.510126 0.579610
vt 0.571714 0.255604
vt 0.627307 0.240398
vt 0.516107 0.270761
vt 0.809201 0.890090
vt 0.771894 0.988745
vt 0.649747 0.541392
vt 0.789416 0.503351
vt 0.689628 0.922739
vt 0.510126 0.579610
vt 0.571714 0.255604
vt 0.627307 0.240398
vt 0.516107 0.270761
vt 0.809201 0.890090
vt 0.771894 0.988745
vt 0.649747 0.541392
vt 0.789416 0.503351
vt 0.689628 0.922739
vt 0.510126 0.579610
vt 0.571714 0.255604
vt 0.627307 0.240398
vt 0.516107 0.270761
vt 0.809201 0.890090
vt 0.771894 0.988745
vt 0.649747 0.541392
vt 0.789416 0.503351
vt 0.689628 0.922739
vt 0.510126 0.579610
vt 0.571714 0.255604
vt 0.627307 0.240398
vt 0.516107 0.270761
vt 0.809201 0.890090
vt 0.771894 0.988745
vt 0.649747 0.541392
vt 0.789416 0.503351
vt 0.689628 0.922739
vt 0.510126 0.579610
vt 0.571714 0.255604
vt 0.627307 0.240398
vt 0.516107 0.270761
vn 0.0000 -0.0000 1.0000
vn 1.0000 -0.0000 0.0000
vn 0.0000 0.0000 -1.0000
vn -1.0000 -0.0000 -0.0000
vn 0.0000 -1.0000 -0.0000
vn 0.0000 1.0000 0.0000
vn 0.8660 -0.0003 0.5000
vn 0.8660 -0.0000 0.5000
vn 0.0000 -0.0001 1.0000
vn -0.0000 0.0001 -1.0000
vn -0.8660 0.0000 -0.5000
vn -0.0629 -0.1363 0.9887
vn 0.0508 -0.1155 0.9920
vn 0.8943 0.1125 0.4332
vn 0.8319 0.0863 0.5481
vn 0.0629 0.1363 -0.9887
vn -0.0508 0.1155 -0.9920
vn -0.8319 -0.0863 -0.5481
vn -0.8943 -0.1125 -0.4332
vn 0.0728 0.1865 0.9798
vn -0.1017 0.2357 0.9665
vn 0.8177 -0.1034 0.5663
vn 0.9038 -0.1575 0.3978
vn -0.0710 -0.1443 -0.9870
vn 0.0948 -0.1877 -0.9776
vn -0.8988 0.2068 -0.3866
vn -0.8121 0.1461 -0.5649
vn 0.0131 -0.0670 0.9977
vn -0.0126 -0.0666 0.9977
vn 0.8817 -0.0283 0.4709
vn 0.8491 -0.0334 0.5272
vn -0.0093 0.0996 -0.9950
vn 0.0086 0.0997 -0.9950
vn -0.8494 0.0657 -0.5236
vn -0.8783 0.0623 -0.4741
vn 0.4483 0.6730 -0.5883
vn 0.1931 0.8015 -0.5660
vn 0.2030 0.8166 -0.5403
vn 0.4558 0.6882 -0.5645
vn -0.0780 0.8642 -0.4971
vn -0.0667 0.8780 -0.4740
vn 0.2165 0.8363 -0.5036
vn 0.4661 0.7096 -0.5285
vn -0.0501 0.8971 -0.4391
vn -0.3603 0.7948 0.4883
vn -0.2106 0.6788 0.7034
vn -0.1853 0.6952 0.6945
vn -0.3358 0.8094 0.4818
vn -0.0436 0.5071 0.8608
vn -0.0213 0.5238 0.8516
vn -0.1498 0.7168 0.6810
vn -0.2992 0.8296 0.4715
vn 0.0115 0.5475 0.8368
vn -0.5514 0.5429 0.6334
vn -0.4227 0.3737 0.8257
vn -0.3990 0.3943 0.8278
vn -0.5286 0.5609 0.6371
vn -0.2593 0.1737 0.9500
vn -0.2387 0.1944 0.9514
vn -0.3655 0.4222 0.8295
vn -0.4943 0.5866 0.6415
vn -0.2079 0.2246 0.9520
vn 0.7842 0.5429 -0.3005
vn 0.7608 0.3737 -0.5306
vn 0.7410 0.3943 -0.5436
vn 0.7659 0.5609 -0.3144
vn 0.6750 0.1737 -0.7171
vn 0.6574 0.1944 -0.7280
vn 0.7122 0.4222 -0.5608
vn 0.7376 0.5866 -0.3344
vn 0.6305 0.2246 -0.7430
vn -0.6041 0.4004 -0.6891
vn -0.5642 0.6344 -0.5285
vn -0.5389 0.6417 -0.5456
vn -0.5805 0.4091 -0.7040
vn -0.4780 0.8163 -0.3245
vn -0.4553 0.8220 -0.3420
vn -0.5029 0.6510 -0.5686
vn -0.5449 0.4214 -0.7250
vn -0.4212 0.8292 -0.3674
vn -0.6392 0.6155 -0.4611
vn -0.8298 0.4273 -0.3590
vn -0.8320 0.4440 -0.3325
vn -0.6429 0.6298 -0.4358
vn -0.9522 0.2040 -0.2275
vn -0.9536 0.2213 -0.2039
vn -0.8338 0.4666 -0.2951
vn -0.6474 0.6500 -0.3980
vn -0.9543 0.2464 -0.1689
vn 0.4952 0.6817 -0.5386
vn 0.3820 0.5324 -0.7554
vn 0.3565 0.5508 -0.7547
vn 0.4708 0.6979 -0.5397
vn 0.2374 0.3393 -0.9102
vn 0.2149 0.3580 -0.9087
vn 0.3205 0.5755 -0.7524
vn 0.4342 0.7207 -0.5405
vn 0.1814 0.3849 -0.9050
vn -0.0347 0.6730 -0.7388
vn -0.2159 0.8015 -0.5577
vn -0.1918 0.8166 -0.5444
vn -0.0137 0.6882 -0.7254
vn -0.3793 0.8642 -0.3307
vn -0.3558 0.8780 -0.3202
vn -0.1579 0.8363 -0.5250
vn 0.0173 0.7096 -0.7044
vn -0.3206 0.8971 -0.3042
vn 0.2365 0.2553 -0.9375
vn 0.0884 0.4904 -0.8670
vn 0.1147 0.5037 -0.8563
vn 0.2600 0.2695 -0.9272
vn -0.0670 0.6851 -0.7254
vn -0.0413 0.6962 -0.7166
vn 0.1512 0.5213 -0.8398
vn 0.2941 0.2900 -0.9107
vn -0.0035 0.7115 -0.7027
vn 0.3058 0.8685 -0.3902
vn 0.4177 0.6932 -0.5874
vn 0.3909 0.6947 -0.6038
vn 0.2819 0.8688 -0.4070
vn 0.4952 0.4610 -0.7364
vn 0.4700 0.4643 -0.7507
vn 0.3531 0.6956 -0.6256
vn 0.2462 0.8680 -0.4312
vn 0.4320 0.4684 -0.7707
vn 0.0901 -0.9346 -0.3440
vn -0.0971 -0.8374 -0.5379
vn -0.0733 -0.8279 -0.5561
vn 0.1109 -0.9254 -0.3624
vn -0.2764 -0.6713 -0.6877
vn -0.2530 -0.6640 -0.7037
vn -0.0400 -0.8133 -0.5804
vn 0.1413 -0.9104 -0.3890
vn -0.2181 -0.6521 -0.7261
vn -0.4800 0.8213 -0.3082
vn -0.6567 0.7482 -0.0948
vn -0.6395 0.7652 -0.0748
vn -0.4655 0.8368 -0.2882
vn -0.7795 0.6135 0.1264
vn -0.7628 0.6306 0.1434
vn -0.6144 0.7876 -0.0468
vn -0.4433 0.8584 -0.2581
vn -0.7370 0.6546 0.1682
vn -0.5084 0.5999 -0.6178
vn -0.5699 0.7329 -0.3715
vn -0.5442 0.7506 -0.3747
vn -0.4851 0.6176 -0.6191
vn -0.5846 0.8058 -0.0947
vn -0.5608 0.8219 -0.0998
vn -0.5074 0.7741 -0.3786
vn -0.4500 0.6426 -0.6201
vn -0.5248 0.8445 -0.1071
vn 0.6744 0.6874 -0.2696
vn 0.7251 0.4964 -0.4772
vn 0.7033 0.5102 -0.4951
vn 0.6547 0.6989 -0.2879
vn 0.7163 0.2647 -0.6456
vn 0.6963 0.2793 -0.6612
vn 0.6717 0.5285 -0.5192
vn 0.6246 0.7149 -0.3143
vn 0.6657 0.3003 -0.6831
vn 0.1841 0.7989 -0.5725
vn 0.0917 0.6217 -0.7779
vn 0.0622 0.6314 -0.7729
vn 0.1561 0.8069 -0.5697
vn -0.0082 0.3933 -0.9194
vn -0.0349 0.4042 -0.9140
vn 0.0211 0.6439 -0.7648
vn 0.1146 0.8174 -0.5645
vn -0.0740 0.4196 -0.9047
usemtl lambert1
s 1
f 156/1/1 157/2/1 161/3/1 160/4/1
f 161/3/2 157/2/2 158/5/2 162/6/2
f 158/5/3 159/7/3 163/8/3 162/6/3
f 163/8/4 159/7/4 156/9/4 160/10/4
f 158/11/5 157/12/5 156/13/5 159/14/5
f 171/15/6 168/16/6 169/17/6 170/18/6
f 160/19/6 161/20/6 165/21/6 164/22/6
f 165/21/6 161/20/6 162/23/6 166/24/6
f 162/23/6 163/25/6 167/26/6 166/24/6
f 167/26/6 163/25/6 160/19/6 164/22/6
f 164/22/3 165/21/3 169/17/3 168/16/3
f 169/17/4 165/21/4 166/24/4 170/18/4
f 166/24/1 167/26/1 171/15/1 170/18/1
f 171/15/2 167/26/2 164/22/2 168/16/2
usemtl a
f 146/27/6 143/28/6 144/29/6 145/30/6
f 128/31/7 132/32/8 131/33/9 127/34/1
f 129/35/3 133/36/10 132/32/8 128/31/7
f 130/37/11 134/38/11 133/36/10 129/35/3
f 127/39/1 131/40/9 134/38/11 130/37/11
f 135/41/12 131/33/13 132/32/14 136/42/15
f 132/32/14 133/36/16 137/43/17 136/42/15
f 137/43/17 133/36/16 134/38/18 138/44/19
f 134/38/18 131/40/13 135/45/12 138/44/19
f 139/46/20 135/41/21 136/42/22 140/47/23
f 136/42/22 137/43/24 141/48/25 140/47/23
f 141/48/25 137/43/24 138/44/26 142/49/27
f 138/44/26 135/45/21 139/50/20 142/49/27
f 143/51/28 139/46/29 140/47/30 144/52/31
f 140/47/30 141/48/32 145/53/33 144/52/31
f 145/53/33 141/48/32 142/49/34 146/54/35
f 142/49/34 139/50/29 143/55/28 146/54/35
f 128/56/5 127/57/5 130/58/5 129/59/5
usemtl b
f 1/60/36 2/61/37 5/62/38 4/63/39
f 2/61/37 3/64/40 6/65/41 5/62/38
f 4/63/39 5/62/38 8/66/42 7/67/43
f 5/62/38 6/65/41 9/68/44 8/66/42
f 10/69/45 11/70/46 14/71/47 13/72/48
f 11/70/46 12/73/49 15/74/50 14/71/47
f 13/72/48 14/71/47 17/75/51 16/76/52
f 14/71/47 15/74/50 18/77/53 17/75/51
f 19/78/54 20/79/55 23/80/56 22/81/57
f 20/79/55 21/82/58 24/83/59 23/80/56
f 22/81/57 23/80/56 26/84/60 25/85/61
f 23/80/56 24/83/59 27/86/62 26/84/60
f 28/87/63 29/88/64 32/89/65 31/90/66
f 29/88/64 30/91/67 33/92/68 32/89/65
f 31/90/66 32/89/65 35/93/69 34/94/70
f 32/89/65 33/92/68 36/95/71 35/93/69
f 37/96/72 38/97/73 41/98/74 40/99/75
f 38/97/73 39/100/76 42/101/77 41/98/74
f 40/99/75 41/98/74 44/102/78 43/103/79
f 41/98/74 42/101/77 45/104/80 44/102/78
f 46/105/81 47/106/82 50/107/83 49/108/84
f 47/106/82 48/109/85 51/110/86 50/107/83
f 49/108/84 50/107/83 53/111/87 52/112/88
f 50/107/83 51/110/86 54/113/89 53/111/87
f 55/114/90 56/115/91 59/116/92 58/117/93
f 56/115/91 57/118/94 60/119/95 59/116/92
f 58/117/93 59/116/92 62/120/96 61/121/97
f 59/116/92 60/119/95 63/122/98 62/120/96
f 64/123/99 65/124/100 68/125/101 67/126/102
f 65/124/100 66/127/103 69/128/104 68/125/101
f 67/126/102 68/125/101 71/129/105 70/130/106
f 68/125/101 69/128/104 72/131/107 71/129/105
f 73/132/108 74/133/109 77/134/110 76/135/111
f 74/133/109 75/136/112 78/137/113 77/134/110
f 76/135/111 77/134/110 80/138/114 79/139/115
f 77/134/110 78/137/113 81/140/116 80/138/114
f 82/141/117 83/142/118 86/143/119 85/144/120
f 83/142/118 84/145/121 87/146/122 86/143/119
f 85/144/120 86/143/119 89/147/123 88/148/124
f 86/143/119 87/146/122 90/149/125 89/147/123
f 91/150/126 92/151/127 95/152/128 94/153/129
f 92/151/127 93/154/130 96/155/131 95/152/128
f 94/153/129 95/152/128 98/156/132 97/157/133
f 95/152/128 96/155/131 99/158/134 98/156/132
f 100/159/135 101/160/136 104/161/137 103/162/138
f 101/160/136 102/163/139 105/164/140 104/161/137
f 103/162/138 104/161/137 107/165/141 106/166/142
f 104/161/137 105/164/140 108/167/143 107/165/141
f 109/168/144 110/169/145 113/170/146 112/171/147
f 110/169/145 111/172/148 114/173/149 113/170/146
f 112/171/147 113/170/146 116/174/150 115/175/151
f 113/170/146 114/173/149 117/176/152 116/174/150
f 118/177/153 119/178/154 122/179/155 121/180/156
f 119/178/154 120/181/157 123/182/158 122/179/155
f 121/180/156 122/179/155 125/183/159 124/184/160
f 122/179/155 123/182/158 126/185/161 125/183/159
f 147/186/162 148/187/163 151/188/164 150/189/165
f 148/187/163 149/190/166 152/191/167 151/188/164
f 150/189/165 151/188/164 154/192/168 153/193/169
f 151/188/164 152/191/167 155/194/170 154/192/168
