# Blender v2.93.4 OBJ File: 'Arch.blend'
# www.blender.org
mtllib WallWindow.mtl
o WallWindow_Plane.004
v 0.000000 4.000000 0.000000
v 0.000000 0.000000 0.000000
v 0.000000 4.000000 -2.000000
v 0.000000 0.000000 -2.000000
v 0.000000 1.000000 -1.800000
v 0.000000 1.000000 -0.200000
v 0.000000 3.000000 -0.200000
v 0.000000 3.000000 -1.800000
v -0.100000 1.000000 -1.800000
v -0.100000 1.000000 -0.200000
v -0.100000 3.000000 -0.200000
v -0.100000 3.000000 -1.800000
v -0.200000 1.000000 -1.800000
v -0.200000 1.000000 -0.200000
v -0.200000 3.000000 -0.200000
v -0.200000 3.000000 -1.800000
vt 0.000016 -0.499968
vt 0.100013 0.000016
vt 0.100013 0.999984
vt 0.000016 1.499968
vt 0.899987 0.999984
vt 0.999984 1.499967
vt 0.999984 -0.499968
vt 0.899987 0.000016
vt 0.833333 0.000000
vt 0.833333 0.833333
vt 0.791667 0.833333
vt 0.791667 0.000000
vt 0.750000 0.833333
vt 0.750000 0.000000
vt 0.791666 0.000000
vt 0.791666 0.833333
vt 1.000000 0.000000
vt 1.000000 0.666666
vt 0.958333 0.666666
vt 0.958333 0.000000
vt 0.875000 0.666666
vt 0.875000 0.000000
vt 0.916667 0.000000
vt 0.916667 0.666666
vt 0.916667 0.666666
vt 0.916667 0.000000
vt 0.833333 0.666666
vt 0.833333 0.000000
vt 0.875000 0.000000
vt 0.875000 0.666666
vt 0.708333 0.000000
vt 0.708333 0.833333
vt 0.666666 0.833333
vt 0.666667 0.000000
vt 0.708333 0.833333
vt 0.708333 0.000000
vt 0.750000 0.000000
vt 0.750000 0.833333
vt 0.000000 0.000000
vt 0.666666 0.000000
vt 0.666666 0.833333
vt 0.000000 0.833333
vn 1.0000 0.0000 0.0000
vn 0.0000 0.0000 1.0000
vn 0.0000 0.0000 -1.0000
vn 0.0000 -1.0000 0.0000
vn 0.0000 1.0000 0.0000
usemtl None
s off
f 2/1/1 6/2/1 7/3/1 1/4/1
f 1/4/1 7/3/1 8/5/1 3/6/1
f 4/7/1 3/6/1 8/5/1 5/8/1
f 5/8/1 6/2/1 2/1/1 4/7/1
f 5/9/2 8/10/2 12/11/2 9/12/2
f 7/13/3 6/14/3 10/15/3 11/16/3
f 8/17/4 7/18/4 11/19/4 12/20/4
f 6/21/5 5/22/5 9/23/5 10/24/5
f 12/20/4 11/19/4 15/25/4 16/26/4
f 10/27/5 9/28/5 13/29/5 14/30/5
f 9/31/2 12/32/2 16/33/2 13/34/2
f 11/35/3 10/36/3 14/37/3 15/38/3
f 10/39/1 9/40/1 12/41/1 11/42/1
