# Blender v2.93.4 OBJ File: 'Arch.blend'
# www.blender.org
mtllib WallDivider.mtl
o DividerGlass_Plane.003
v 0.050000 2.900000 0.000000
v 0.050000 0.000000 0.000000
v 0.050000 0.000000 -0.100000
v 0.050000 2.900000 -0.100000
v 0.050000 3.000000 -1.900000
v 0.050000 2.900000 -1.900000
v 0.050000 3.000000 0.000000
v 0.050000 3.000000 -0.100000
v 0.050000 4.000000 0.000000
v 0.050000 3.900000 -0.100000
v 0.050000 3.900000 -1.900000
v 0.050000 3.000000 -2.000000
v 0.050000 2.900000 -2.000000
v 0.050000 4.000000 -2.000000
v 0.050000 0.000000 -1.900000
v 0.050000 0.000000 -2.000000
v -0.050000 2.900000 0.000000
v -0.050000 0.000000 0.000000
v -0.050000 0.000000 -0.100000
v -0.050000 2.900000 -0.100000
v 0.000000 0.000000 -0.100000
v 0.000000 2.900000 -0.100000
v -0.050000 3.000000 -1.900000
v 0.000000 2.900000 -1.900000
v -0.050000 2.900000 -1.900000
v -0.050000 3.000000 0.000000
v -0.050000 3.000000 -0.100000
v -0.050000 4.000000 0.000000
v -0.050000 3.900000 -0.100000
v 0.000000 0.000000 -1.900000
v -0.050000 3.900000 -1.900000
v -0.050000 3.000000 -2.000000
v 0.000000 2.900000 -2.000000
v -0.050000 2.900000 -2.000000
v -0.050000 4.000000 -2.000000
v -0.050000 0.000000 -1.900000
v 0.000000 0.000000 -2.000000
v -0.050000 0.000000 -2.000000
v 0.000000 4.000000 0.000000
v 0.000000 4.000000 -2.000000
v 0.000000 0.000000 0.000000
v 0.000000 3.000000 -1.900000
v 0.000000 3.000000 -0.100000
v 0.000000 3.900000 -0.100000
v 0.000000 3.900000 -1.900000
vt 0.000017 -0.499920
vt 0.050013 -0.499919
vt 0.050012 0.949947
vt 0.000013 0.949947
vt 0.712500 0.000000
vt 0.725000 0.000000
vt 0.725000 0.725000
vt 0.712500 0.725000
vt 0.750000 0.450000
vt 0.750001 0.000000
vt 0.762501 0.000000
vt 0.762500 0.450000
vt 0.949988 0.999946
vt 0.050012 0.999946
vt 0.949988 0.949947
vt 0.000013 0.999946
vt 0.050011 1.449934
vt 0.000013 1.499932
vt 0.687500 0.725000
vt 0.687500 0.000000
vt 0.700000 0.000000
vt 0.700000 0.725000
vt 0.999987 0.949947
vt 0.999987 0.999946
vt 0.949991 -0.499932
vt 0.999987 -0.499932
vt 0.700000 0.725000
vt 0.700000 0.000000
vt 0.712500 0.000000
vt 0.712500 0.725000
vt 0.949988 1.449934
vt 0.999987 1.499932
vt 0.687500 0.000000
vt 0.687500 0.725000
vt 0.687500 0.750000
vt 0.687500 1.000000
vt 0.675000 1.000000
vt 0.675000 0.000000
vt 0.737500 0.000000
vt 0.737500 0.500000
vt 0.725000 0.500000
vt 0.725000 0.000000
vt 0.700000 1.000000
vt 0.687500 1.000000
vt 0.687500 0.750000
vt 0.450000 0.450000
vt 0.462500 0.450000
vt 0.462500 0.675000
vt 0.450000 0.675000
vt 0.475000 0.675000
vt 0.462500 0.675000
vt 0.462500 0.450000
vt 0.475000 0.450000
vt 0.737500 0.000000
vt 0.750000 0.000000
vt 0.750000 0.450000
vt 0.737500 0.450000
vt 0.775001 0.450000
vt 0.762501 0.450000
vt 0.762501 0.000000
vt 0.775001 0.000000
vt 0.000017 -0.499920
vt 0.000013 0.949947
vt 0.050012 0.949947
vt 0.050013 -0.499919
vt 0.712500 0.000000
vt 0.712500 0.725000
vt 0.762500 0.450000
vt 0.762501 0.000000
vt 0.949988 0.999946
vt 0.949988 0.949947
vt 0.050012 0.999946
vt 0.000013 0.999946
vt 0.000013 1.499932
vt 0.050011 1.449934
vt 0.687500 0.725000
vt 0.687500 0.000000
vt 0.999987 0.999946
vt 0.999987 0.949947
vt 0.999987 -0.499932
vt 0.949991 -0.499932
vt 0.712500 0.725000
vt 0.712500 0.000000
vt 0.999987 1.499932
vt 0.949988 1.449934
vt 0.687500 0.000000
vt 0.687500 1.000000
vt 0.687500 0.750000
vt 0.687500 0.725000
vt 0.725000 0.000000
vt 0.725000 0.500000
vt 0.687500 0.750000
vt 0.687500 1.000000
vt 0.450000 0.450000
vt 0.450000 0.675000
vt 0.475000 0.675000
vt 0.475000 0.450000
vt 0.737500 0.000000
vt 0.737500 0.450000
vt 0.775001 0.450000
vt 0.775001 0.000000
vt 0.000000 0.725000
vt 0.450000 0.725000
vt 0.450000 0.000000
vt 0.000000 0.000000
vt 0.450000 0.450000
vt 0.675000 0.450000
vt 0.675000 0.000000
vt 0.450000 0.000000
vn 1.0000 0.0000 0.0000
vn 0.0000 0.0000 -1.0000
vn 0.0000 -1.0000 0.0000
vn 0.0000 0.0000 1.0000
vn 0.0000 1.0000 0.0000
vn -1.0000 0.0000 0.0000
usemtl None
s off
f 2/1/1 3/2/1 4/3/1 1/4/1
f 3/5/2 21/6/2 22/7/2 4/8/2
f 22/9/3 24/10/3 6/11/3 4/12/3
f 5/13/1 8/14/1 4/3/1 6/15/1
f 8/14/1 7/16/1 1/4/1 4/3/1
f 8/14/1 10/17/1 9/18/1 7/16/1
f 13/19/2 16/20/2 37/21/2 33/22/2
f 6/15/1 13/23/1 12/24/1 5/13/1
f 6/15/1 15/25/1 16/26/1 13/23/1
f 24/27/4 30/28/4 15/29/4 6/30/4
f 9/18/1 10/17/1 11/31/1 14/32/1
f 14/32/1 11/31/1 5/13/1 12/24/1
f 2/33/4 1/34/4 7/35/4 9/36/4 39/37/4 41/38/4
f 40/39/5 39/40/5 9/41/5 14/42/5
f 13/19/2 33/22/2 40/43/2 14/44/2 12/45/2
f 8/46/2 43/47/2 44/48/2 10/49/2
f 11/50/4 45/51/4 42/52/4 5/53/4
f 5/54/5 42/55/5 43/56/5 8/57/5
f 10/58/3 44/59/3 45/60/3 11/61/3
f 18/62/6 17/63/6 20/64/6 19/65/6
f 19/66/2 20/67/2 22/7/2 21/6/2
f 22/9/3 20/68/3 25/69/3 24/10/3
f 23/70/6 25/71/6 20/64/6 27/72/6
f 27/72/6 20/64/6 17/63/6 26/73/6
f 27/72/6 26/73/6 28/74/6 29/75/6
f 34/76/2 33/22/2 37/21/2 38/77/2
f 25/71/6 23/70/6 32/78/6 34/79/6
f 25/71/6 34/79/6 38/80/6 36/81/6
f 24/27/4 25/82/4 36/83/4 30/28/4
f 28/74/6 35/84/6 31/85/6 29/75/6
f 35/84/6 32/78/6 23/70/6 31/85/6
f 18/86/4 41/38/4 39/37/4 28/87/4 26/88/4 17/89/4
f 40/39/5 35/90/5 28/91/5 39/40/5
f 34/76/2 32/92/2 35/93/2 40/43/2 33/22/2
f 27/94/2 29/95/2 44/48/2 43/47/2
f 31/96/4 23/97/4 42/52/4 45/51/4
f 23/98/5 27/99/5 43/56/5 42/55/5
f 29/100/3 31/101/3 45/60/3 44/59/3
f 22/102/6 24/103/6 30/104/6 21/105/6
f 43/106/6 44/107/6 45/108/6 42/109/6
