# Blender v2.93.4 OBJ File: 'floorplan.blend'
# www.blender.org
mtllib ReceptionThing.mtl
o FloorPlan.001_Plane.002
v -3.000000 0.000000 -8.200000
v -4.564397 0.000000 -9.282199
v -5.000000 0.000000 -11.000000
v -5.000000 0.000000 -12.000000
v 3.000000 0.000000 -8.200000
v 4.564397 0.000000 -9.282199
v 5.000000 0.000000 -11.000000
v 5.000000 0.000000 -12.000000
v 0.000000 0.000000 -8.000000
v -3.000000 3.500000 -8.200000
v -4.564397 3.500000 -9.282199
v -5.000000 3.500000 -11.000000
v -5.000000 3.500000 -12.000000
v 3.000000 3.500000 -8.200000
v 4.564397 3.500000 -9.282199
v 5.000000 3.500000 -11.000000
v 5.000000 3.500000 -12.000000
v 0.000000 3.500000 -8.000000
v -5.305706 3.500000 -12.000000
v 5.305706 3.500000 -12.000000
v -5.305706 3.500000 -10.900000
v 5.305706 3.500000 -10.900000
v -4.879913 3.500000 -9.108021
v 4.879913 3.500000 -9.108021
v -3.157948 3.500000 -7.879292
v 3.157948 3.500000 -7.879292
v 0.000000 3.500000 -7.663251
v -5.305706 4.000000 -12.000000
v 5.305706 4.000000 -12.000000
v -5.305706 4.000000 -10.900000
v 5.305706 4.000000 -10.900000
v -4.879913 4.000000 -9.108021
v 4.879913 4.000000 -9.108021
v -3.157948 4.000000 -7.879292
v 3.157948 4.000000 -7.879292
v 0.000000 4.000000 -7.663251
vt 0.695719 0.613916
vt 0.695719 0.386084
vt 0.819545 0.386083
vt 0.819545 0.613916
vt 0.180455 0.613917
vt 0.065095 0.613917
vt 0.065095 0.386083
vt 0.180455 0.386084
vt 0.500000 0.613917
vt 0.304281 0.613917
vt 0.304281 0.386083
vt 0.500000 0.386084
vt 0.934905 0.386083
vt 0.934905 0.613916
vt -0.000000 0.613917
vt -0.000000 0.386084
vt 1.000000 0.386083
vt 1.000000 0.613916
vt 0.408688 0.000000
vt 0.408688 0.028809
vt 0.314449 0.028809
vt 0.305025 0.000000
vt 0.152567 0.069860
vt 0.136152 0.040126
vt 0.050582 0.217286
vt 0.020359 0.202401
vt 0.031734 0.500000
vt 0.000000 0.500000
vt 0.050582 0.782714
vt 0.020359 0.797599
vt 0.152567 0.930140
vt 0.136152 0.959874
vt 0.408688 1.000000
vt 0.305025 1.000000
vt 0.314449 0.971191
vt 0.408688 0.971191
vt 0.550044 0.000000
vt 0.550044 0.102958
vt 0.502925 0.102958
vt 0.502925 0.000000
vt 0.455806 0.182359
vt 0.455806 0.477916
vt 0.408687 0.477916
vt 0.408687 0.182359
vt 0.455806 0.765229
vt 0.455806 0.900698
vt 0.408687 0.900698
vt 0.408687 0.765229
vt 0.502925 0.000000
vt 0.502925 0.172395
vt 0.455806 0.172395
vt 0.455806 0.000000
vt 0.502925 0.275352
vt 0.455806 0.275352
vt 0.455806 0.000000
vt 0.408687 0.000000
vt 0.550044 0.275352
vt 0.502925 0.275352
vn -0.5689 0.0000 0.8224
vn 0.9693 0.0000 0.2458
vn 0.0665 0.0000 0.9978
vn -0.9693 0.0000 0.2458
vn -0.0665 0.0000 0.9978
vn 1.0000 0.0000 0.0000
vn 0.5689 0.0000 0.8224
vn -1.0000 0.0000 0.0000
vn 0.0000 -1.0000 0.0000
vn -0.0683 0.0000 0.9977
vn 0.5808 0.0000 0.8140
vn 0.9729 0.0000 0.2312
vn 0.0683 0.0000 0.9977
vn -0.5808 0.0000 0.8140
vn -0.9729 0.0000 0.2312
usemtl Wood
s off
f 1/1/1 10/2/1 11/3/1 2/4/1
f 6/5/2 7/6/2 16/7/2 15/8/2
f 9/9/3 5/10/3 14/11/3 18/12/3
f 2/4/4 11/3/4 12/13/4 3/14/4
f 9/9/5 18/12/5 10/2/5 1/1/5
f 7/6/6 8/15/6 17/16/6 16/7/6
f 5/10/7 6/5/7 15/8/7 14/11/7
f 3/14/8 12/13/8 13/17/8 4/18/8
usemtl Whatever
f 19/19/9 13/20/9 12/21/9 21/22/9
f 11/23/9 23/24/9 21/22/9 12/21/9
f 10/25/9 25/26/9 23/24/9 11/23/9
f 18/27/9 27/28/9 25/26/9 10/25/9
f 14/29/9 26/30/9 27/28/9 18/27/9
f 14/29/9 15/31/9 24/32/9 26/30/9
f 20/33/9 22/34/9 16/35/9 17/36/9
f 15/31/9 16/35/9 22/34/9 24/32/9
f 19/37/8 21/38/8 30/39/8 28/40/8
f 25/41/10 27/42/10 36/43/10 34/44/10
f 26/45/11 24/46/11 33/47/11 35/48/11
f 24/49/12 22/50/12 31/51/12 33/52/12
f 22/50/6 20/53/6 29/54/6 31/51/6
f 27/42/13 26/45/13 35/48/13 36/43/13
f 23/55/14 25/41/14 34/44/14 32/56/14
f 21/38/15 23/57/15 32/58/15 30/39/15
